<?xml version="1.0" encoding="UTF-8"?><svg id="Logo" xmlns="http://www.w3.org/2000/svg" xmlns:xlink="http://www.w3.org/1999/xlink" viewBox="0 0 512 512"><defs><style>.cls-1{fill:none;}.cls-1,.cls-2{stroke-width:0px;}.cls-3{fill:url(#linear-gradient);fill-rule:evenodd;stroke:#003c3b;stroke-miterlimit:10;stroke-width:8px;}.cls-2{fill:#091829;}.cls-4{clip-path:url(#clippath);}</style><linearGradient id="linear-gradient" x1="84.49" y1="258.54" x2="368.68" y2="258.54" gradientTransform="translate(-18.36 20.67) rotate(-4.65)" gradientUnits="userSpaceOnUse"><stop offset="0" stop-color="#0a8dbb"/><stop offset=".54" stop-color="#3bac9d"/><stop offset="1" stop-color="#68c983"/></linearGradient><clipPath id="clippath"><path class="cls-1" d="M106.51,53.56v404.95h299.06V53.56H106.51ZM144.5,374.8l-15.04,25.42c.71.76,1.22,1.69,1.48,2.72.41,1.62.16,3.3-.69,4.73-.85,1.43-2.21,2.44-3.83,2.85-.21.05-.41.09-.62.12-.34-6.78-.97-15.26-1.86-25.24-.12-1.58-.23-3.11-.34-4.6l10.67-17.7c-2.15-3.99-5.92-9.13-11.28-9.84-.31-.04-.58-.05-.83-.04-.03-1.61-.05-3.09-.05-4.42,0-9.89.45-18.58,1.32-25.88,1.36.14,2.72.36,4.11.72-.42-.93-.84-1.89-1.25-2.86h6.68l1,.95c1.17,21.42,7.62,40.49,19.19,56.67.43.6.87,1.19,1.31,1.78-.49-.31-.97-.61-1.45-.9-3.01-1.82-5.86-3.23-8.52-4.46ZM176.62,202.36c.97-1.02,1.98-2.02,3.02-2.98l4.87-4.47,1.71,6.38c.68,2.55,1.28,5.05,1.86,7.5-4.31-2.21-8.14-4.36-11.45-6.44ZM190.7,208.92l-.53.2c.28-2.02.59-3.99.9-5.89.35,1.91.4,3.83-.37,5.69ZM364.49,131.37c-5.49-9.67-13.52-17.81-23.9-24.2-12.96-8-27.82-13.65-44.24-16.82,22.68-13.72,43.16-21.84,60.97-26.39,7.6,1.56,15.42,3.3,23.46,5.24l.77.97v2.56l.73,13.82c0,7.37.25,16.2.73,26.3.22,3.78.41,7.49.57,11.08l-19.09,7.45Z"/></clipPath></defs><path class="cls-2" d="M124.57,321.76h8.4c1.7,31.16,14.24,56.85,37.61,77.05,22.88,19.96,49.17,29.94,78.88,29.94,22.88,0,41.5-6.45,55.87-19.35,14.36-12.9,21.55-28.36,21.55-46.38,0-18.99-6.94-33.72-20.82-44.18-13.39-10.22-39.8-21.78-79.24-34.69-31.65-10.46-54.17-19.11-67.56-25.93-15.58-8.03-27.75-18.86-36.52-32.5-9.49-13.88-14.24-29.45-14.24-46.74,0-19.23,6.45-38.1,19.35-56.6-2.92,9.49-4.38,17.77-4.38,24.83,0,18.99,4.5,35.67,13.51,50.03,9.25,14.85,20.69,26.05,34.33,33.6,13.63,7.79,36.39,16.68,68.29,26.66,41.63,12.66,71.69,26.66,90.2,41.99,17.77,14.85,26.66,34.82,26.66,59.89s-9.26,46.87-27.75,66.83c-18.75,20.21-46.74,30.31-83.99,30.31-15.1,0-36.03-2.8-62.81-8.4-23.37-4.87-40.9-7.42-52.58-7.67l-2.56-2.92c.24-4.14.37-9.49.37-16.07,0-7.79-.73-19.84-2.19-36.15-1.22-16.31-1.83-28.48-1.83-36.52,0-10.46.48-19.47,1.46-27.02ZM382.38,169.12h-7.67c-.25-28.24-11.45-49.17-33.59-62.81-21.67-13.39-47.96-20.08-78.88-20.08-24.59,0-44.8,5.24-60.62,15.7-16.07,10.47-24.1,23.01-24.1,37.61,0,15.58,6.33,27.88,18.99,36.88,13.15,9.74,39.07,21.31,77.78,34.69,36.03,12.42,61.22,22.52,75.59,30.31,15.34,8.52,28.12,20.69,38.34,36.52,10.23,16.31,15.34,34.45,15.34,54.41,0,30.43-11.2,54.29-33.59,71.57,8.27-11.44,12.42-27.51,12.42-48.2,0-19.47-4.51-36.76-13.51-51.85-9.49-15.34-21.18-27.51-35.06-36.52-14.12-9.25-37.13-19.11-69.02-29.58-47.96-15.82-79.24-29.33-93.85-40.53-14.61-11.44-21.91-29.21-21.91-53.31,0-27.75,11.19-49.54,33.6-65.36,22.4-15.34,54.16-23.01,95.31-23.01,27.99,0,62.2,4.87,102.61,14.61v2.56l.73,13.88c0,7.3.24,16.07.73,26.29.73,12.42,1.1,23.37,1.1,32.87,0,6.33-.25,14.12-.73,23.37Z"/><g id="_id114_scwqzoj0r"><path class="cls-3" d="M138.84,363.27c-2.47-5.29-7.41-12.94-15.32-13.98-9.29-1.23-10.3,10.94-10.3,10.94,0,0-1.92-22.29,20.85-13.16-3.44-4.51-13.18-9.75-23.28-17.82,9.03-4.53,17.35-2.42,25.38,2.53,0,0-7.77-13.56-9.2-21.78-1.36-7.82.76-20.11,5.23-28.43l17.55,31.19s-6.71-27.52-7.74-35.8c-.78-6.24,5.67-23.82,9.2-29.84l6.27,31.29,4.3-45.62s7.31-18.28,20.56-30.45c3.36,12.58,4.93,24.65,10.94,32.79-2.91-14.4,5.07-48.2,5.07-48.2-1.3-2.01,39.35-50.91,39.35-50.91-1.29,12.09.06,23.34,5.7,33.23-4.49-.07,7.64-44.8,7.64-44.8,0,0,10.85-15.09,20.6-18.91l-1.43,29.56,17.39-34.46c98.89-65.8,159.34-25.73,159.34-25.73-28.18,2.24-38.59,12.57-64.44,45.15l-46.15,18.01,39.62,3.63c-9.37,8.12-25.98,25.26-25.98,25.26l-38.77,9.78,45.62,7.45c-5.79,8.35-30.12,29.57-37.94,32.43-11.09,4.07-55.92,9.97-55.92,9.97l62.31,1.75c-6.76,11.22-23.96,32.39-31.81,36.84-15.57,8.81-54.59,17.12-54.59,17.12,14.24,3.69,28.52,4.16,42.52,1.61-6.61,13.03-24.3,32.02-29.49,37.92l-27.37,4.51,24.84,11.89c-2.62,5.11-36.82,30.86-46.42,34.54,0,0-39.3-8.99-45.05-6.97,4.44.59,6.37,7.14,7.95,13.17,1.94,7.43-3.72,13.58-3.72,13.58,0,0,4.79-8.66-3.39-14.3-5.94-4.1-11.41-6.53-15.89-8.54l-18.76,31.72,1.93,1.15c.51.3.88.8,1.02,1.37.14.58.06,1.18-.25,1.69,0,0,0,0,0,0-.3.51-.8.88-1.37,1.02-.58.15-1.18.06-1.69-.25l-1.91-1.14-16.12,27.18c-.42.7-5.47,4.43-8.85,8.99-4.91,6.64-8.71,14.62-9.74,14.01-1.73-1.03,6.43-15.86,12.33-26.74,2.55-4.71,2.76-4.59,2.76-4.59l13.52-22.49-1.3-.78c-.51-.3-.88-.8-1.02-1.37-.14-.58-.06-1.18.25-1.69,0,0,0,0,0,0,.3-.51.8-.88,1.37-1.02.58-.14,1.18-.06,1.69.25l1.31.79,20.8-34.5h0Z"/></g><g class="cls-4"><path class="cls-2" d="M124.57,321.76h8.4c1.7,31.16,14.24,56.85,37.61,77.05,22.88,19.96,49.17,29.94,78.88,29.94,22.88,0,41.5-6.45,55.87-19.35,14.36-12.9,21.55-28.36,21.55-46.38,0-18.99-6.94-33.72-20.82-44.18-13.39-10.22-39.8-21.78-79.24-34.69-31.65-10.46-54.17-19.11-67.56-25.93-15.58-8.03-27.75-18.86-36.52-32.5-9.49-13.88-14.24-29.45-14.24-46.74,0-19.23,6.45-38.1,19.35-56.6-2.92,9.49-4.38,17.77-4.38,24.83,0,18.99,4.5,35.67,13.51,50.03,9.25,14.85,20.69,26.05,34.33,33.6,13.63,7.79,36.39,16.68,68.29,26.66,41.63,12.66,71.69,26.66,90.2,41.99,17.77,14.85,26.66,34.82,26.66,59.89s-9.26,46.87-27.75,66.83c-18.75,20.21-46.74,30.31-83.99,30.31-15.1,0-36.03-2.8-62.81-8.4-23.37-4.87-40.9-7.42-52.58-7.67l-2.56-2.92c.24-4.14.37-9.49.37-16.07,0-7.79-.73-19.84-2.19-36.15-1.22-16.31-1.83-28.48-1.83-36.52,0-10.46.48-19.47,1.46-27.02ZM382.38,169.12h-7.67c-.25-28.24-11.45-49.17-33.59-62.81-21.67-13.39-47.96-20.08-78.88-20.08-24.59,0-44.8,5.24-60.62,15.7-16.07,10.47-24.1,23.01-24.1,37.61,0,15.58,6.33,27.88,18.99,36.88,13.15,9.74,39.07,21.31,77.78,34.69,36.03,12.42,61.22,22.52,75.59,30.31,15.34,8.52,28.12,20.69,38.34,36.52,10.23,16.31,15.34,34.45,15.34,54.41,0,30.43-11.2,54.29-33.59,71.57,8.27-11.44,12.42-27.51,12.42-48.2,0-19.47-4.51-36.76-13.51-51.85-9.49-15.34-21.18-27.51-35.06-36.52-14.12-9.25-37.13-19.11-69.02-29.58-47.96-15.82-79.24-29.33-93.85-40.53-14.61-11.44-21.91-29.21-21.91-53.31,0-27.75,11.19-49.54,33.6-65.36,22.4-15.34,54.16-23.01,95.31-23.01,27.99,0,62.2,4.87,102.61,14.61v2.56l.73,13.88c0,7.3.24,16.07.73,26.29.73,12.42,1.1,23.37,1.1,32.87,0,6.33-.25,14.12-.73,23.37Z"/></g></svg>