<?xml version="1.0" encoding="UTF-8"?><svg id="Logo" xmlns="http://www.w3.org/2000/svg" xmlns:xlink="http://www.w3.org/1999/xlink" viewBox="0 0 512 512"><defs><style>.cls-1{fill:url(#linear-gradient);fill-rule:evenodd;stroke:#003c3b;stroke-miterlimit:10;stroke-width:8px;}</style><linearGradient id="linear-gradient" x1="84.49" y1="258.54" x2="368.68" y2="258.54" gradientTransform="translate(-18.36 20.67) rotate(-4.65)" gradientUnits="userSpaceOnUse"><stop offset="0" stop-color="#0a8dbb"/><stop offset=".54" stop-color="#3bac9d"/><stop offset="1" stop-color="#68c983"/></linearGradient></defs><g id="_id114_scwqzoj0r"><path class="cls-1" d="M138.84,363.27c-2.47-5.29-7.41-12.94-15.32-13.98-9.29-1.23-10.3,10.94-10.3,10.94,0,0-1.92-22.29,20.85-13.16-3.44-4.51-13.18-9.75-23.28-17.82,9.03-4.53,17.35-2.42,25.38,2.53,0,0-7.77-13.56-9.2-21.78-1.36-7.82.76-20.11,5.23-28.43l17.55,31.19s-6.71-27.52-7.74-35.8c-.78-6.24,5.67-23.82,9.2-29.84l6.27,31.29,4.3-45.62s7.31-18.28,20.56-30.45c3.36,12.58,4.93,24.65,10.94,32.79-2.91-14.4,5.07-48.2,5.07-48.2-1.3-2.01,39.35-50.91,39.35-50.91-1.29,12.09.06,23.34,5.7,33.23-4.49-.07,7.64-44.8,7.64-44.8,0,0,10.85-15.09,20.6-18.91l-1.43,29.56,17.39-34.46c98.89-65.8,159.34-25.73,159.34-25.73-28.18,2.24-38.59,12.57-64.44,45.15l-46.15,18.01,39.62,3.63c-9.37,8.12-25.98,25.26-25.98,25.26l-38.77,9.78,45.62,7.45c-5.79,8.35-30.12,29.57-37.94,32.43-11.09,4.07-55.92,9.97-55.92,9.97l62.31,1.75c-6.76,11.22-23.96,32.39-31.81,36.84-15.57,8.81-54.59,17.12-54.59,17.12,14.24,3.69,28.52,4.16,42.52,1.61-6.61,13.03-24.3,32.02-29.49,37.92l-27.37,4.51,24.84,11.89c-2.62,5.11-36.82,30.86-46.42,34.54,0,0-39.3-8.99-45.05-6.97,4.44.59,6.37,7.14,7.95,13.17,1.94,7.43-3.72,13.58-3.72,13.58,0,0,4.79-8.66-3.39-14.3-5.94-4.1-11.41-6.53-15.89-8.54l-18.76,31.72,1.93,1.15c.51.3.88.8,1.02,1.37.14.58.06,1.18-.25,1.69,0,0,0,0,0,0-.3.51-.8.88-1.37,1.02-.58.15-1.18.06-1.69-.25l-1.91-1.14-16.12,27.18c-.42.7-5.47,4.43-8.85,8.99-4.91,6.64-8.71,14.62-9.74,14.01-1.73-1.03,6.43-15.86,12.33-26.74,2.55-4.71,2.76-4.59,2.76-4.59l13.52-22.49-1.3-.78c-.51-.3-.88-.8-1.02-1.37-.14-.58-.06-1.18.25-1.69,0,0,0,0,0,0,.3-.51.8-.88,1.37-1.02.58-.14,1.18-.06,1.69.25l1.31.79,20.8-34.5h0Z"/></g></svg>